<svg height="512pt" viewBox="0 0 512.0006 512" width="512pt" xmlns="http://www.w3.org/2000/svg"><path d="m498.226562 440.582031c9.484376-13.40625 14.328126-29.550781 13.722657-46.160156-.691407-19.050781-8.503907-36.976563-21.996094-50.464844l-33.460937-33.460937c6.890624-25.332032 8.917968-51.425782 6.007812-77.644532-.457031-4.113281-4.164062-7.074218-8.28125-6.625-4.117188.457032-7.082031 4.164063-6.625 8.28125 2.378906 21.425782 1.195312 42.761719-3.484375 63.601563l-10.734375-10.734375c-5.503906-5.503906-12.828125-8.535156-20.617188-8.535156-7.808593 0-15.132812 3.03125-20.625 8.539062-11.359374 11.371094-11.359374 29.871094.003907 41.234375l28.179687 28.167969c-7.871094 12.785156-17.273437 24.695312-28.019531 35.449219-46.890625 46.890625-114.25 66.175781-178.445313 51.847656l10.75-10.75c5.503907-5.507813 8.535157-12.824219 8.535157-20.609375 0-7.804688-3.035157-15.128906-8.539063-20.621094-11.363281-11.359375-29.859375-11.359375-41.238281 0l-28.214844 28.210938c-12.867187-7.902344-24.8125-17.320313-35.558593-28.078125-11.316407-11.316407-21.167969-23.953125-29.300782-37.546875-.078125-.160156-.136718-.328125-.230468-.480469-3.175782-5.382813-6.074219-10.882813-8.628907-16.378906-3.699219-7.878907-6.894531-16.113281-9.484375-24.46875-.117187-.375-.269531-.730469-.4375-1.074219-7.3125-23.972656-9.878906-48.820312-7.613281-73.878906.375-4.125-2.667969-7.769532-6.792969-8.144532-4.113281-.378906-7.769531 2.667969-8.144531 6.792969-2.347656 25.90625.105469 51.609375 7.269531 76.472657l-32.296875 32.296874c-13.421875 13.417969-21.230469 31.242188-21.992187 50.183594-.664063 16.511719 4.0625 32.589844 13.398437 45.980469l-.75.75c-5.640625 5.640625-8.746093 13.136719-8.746093 21.109375s3.105468 15.46875 8.746093 21.109375l13.90625 13.90625c5.816407 5.820313 13.460938 8.730469 21.105469 8.730469s15.285156-2.910156 21.105469-8.730469l.671875-.671875c12.730468 9.015625 27.804687 13.785156 43.296875 13.785156 4.605469 0 9.25-.421875 13.875-1.277344 4.074219-.753906 6.765625-4.667968 6.011719-8.738281-.753907-4.074219-4.675782-6.757812-8.738282-6.011719-15.3125 2.832032-30.808594-.292968-43.628906-8.570312l15.796875-15.796875c3.875-3.875 6.550781-8.625 7.847656-13.808594 11.078125 7.691407 26.445313 6.617188 36.308594-3.25l19.429687-19.425781c.011719-.011719.023438-.023438.039063-.039062l32.351563-32.347657c5.527343-5.519531 14.515624-5.519531 20.039062.003907 2.667969 2.660156 4.136719 6.214843 4.136719 10.007812 0 3.777344-1.472657 7.332031-4.144531 10.003906l-20 20c-.03125.027344-.054688.054688-.082032.082032l-36.5 36.496093c-1.984375 1.984375-4.113281 3.839844-6.332031 5.519531-3.304687 2.496094-3.957031 7.199219-1.457031 10.503907 1.472656 1.949219 3.714844 2.976562 5.984375 2.976562 1.578125 0 3.167969-.496093 4.519531-1.519531 2.765625-2.089844 5.421875-4.402344 7.890625-6.875l33.449219-33.441406c17.996094 4.875 36.292968 7.257812 54.457031 7.257812 19.519531 0 38.871094-2.765625 57.496094-8.125l32.433593 32.445313c13.421876 13.417969 31.246094 21.226562 50.191407 21.984375 1.019531.042968 2.035156.0625 3.050781.0625 15.433594 0 30.371094-4.707032 42.933594-13.464844l.757812.757812c5.816406 5.816407 13.460938 8.726563 21.105469 8.726563s15.285156-2.910156 21.105469-8.726563l13.90625-13.90625c5.640625-5.640624 8.746094-13.136718 8.746094-21.109374 0-7.972657-3.105469-15.46875-8.746094-21.105469zm-481.308593-43.972656c.609375-15.167969 6.863281-29.4375 17.609375-40.183594l26.980468-26.976562c3.554688 9.410156 7.796876 18.5625 12.6875 27.359375l-14.890624 14.886718c-5.371094 5.363282-8.328126 12.503907-8.328126 20.101563 0 5.714844 1.671876 11.171875 4.789063 15.808594-5.097656 1.257812-9.925781 3.875-13.902344 7.847656l-15.71875 15.71875c-6.476562-10.242187-9.722656-22.253906-9.226562-34.5625zm70.460937 64.363281-21.800781 21.796875c0 .003907-.003906.003907-.007813.007813l-5.476562 5.476562c-5.789062 5.789063-15.210938 5.789063-21.003906 0l-13.90625-13.90625c-2.804688-2.804687-4.351563-6.535156-4.351563-10.503906 0-3.964844 1.546875-7.695312 4.351563-10.5l5.363281-5.363281c.019531-.019531.039063-.035157.054687-.054688l21.867188-21.863281c2.894531-2.894531 6.695312-4.34375 10.5-4.34375 3.785156 0 7.566406 1.4375 10.457031 4.304688l13.285157 13.277343.667968.667969c2.804688 2.804688 4.347656 6.535156 4.347656 10.5.003907 3.96875-1.542968 7.699219-4.347656 10.503906zm44.15625-17.058594c-2.535156 2.539063-5.910156 3.9375-9.496094 3.9375-3.585937 0-6.960937-1.398437-9.496093-3.9375l-14.484375-14.480468s-.074219-.070313-.074219-.074219l-6.476563-6.476563-7.429687-7.425781c-.015625-.015625-.035156-.03125-.050781-.046875l-14.117188-14.113281c-2.539062-2.535156-3.9375-5.910156-3.9375-9.5 0-3.585937 1.398438-6.957031 3.9375-9.492187l12.308594-12.308594c6.828125 10.363281 14.597656 20.140625 23.214844 29.183594l-3.855469 3.855468c-2.929687 2.929688-2.929687 7.675782 0 10.605469 1.464844 1.464844 3.386719 2.195313 5.304687 2.195313 1.917969 0 3.839844-.730469 5.304688-2.195313l3.980469-3.980469c8.757812 7.972656 18.164062 15.171875 28.105469 21.519532zm271.210938-145.9375c2.660156-2.667968 6.214844-4.136718 10.007812-4.136718 3.789063 0 7.34375 1.472656 10.015625 4.140625l56.578125 56.582031c20.164063 20.164062 23.105469 51.796875 8.070313 75.210938l-15.796875-15.796876c-3.953125-3.949218-8.746094-6.554687-13.808594-7.824218 3.300781-4.726563 5.085938-10.339844 5.085938-16.226563 0-7.59375-2.957032-14.730469-8.328126-20.101562l-51.828124-51.816407c-5.519532-5.519531-5.519532-14.503906.003906-20.03125zm-3.582032 108.503907 3.90625 3.90625c1.464844 1.460937 3.386719 2.195312 5.304688 2.195312s3.839844-.734375 5.304688-2.199219c2.925781-2.929687 2.925781-7.675781-.003907-10.605468l-4.039062-4.039063c7.992187-8.773437 15.199219-18.171875 21.542969-28.089843l12.785156 12.78125c2.539062 2.535156 3.933594 5.90625 3.933594 9.496093 0 3.585938-1.394532 6.957031-3.933594 9.496094l-14.519532 14.519531c-.011718.011719-.027343.023438-.039062.035156l-13.90625 13.90625c-.015625.011719-.027344.027344-.039062.039063l-14.125 14.128906c-5.238282 5.234375-13.757813 5.234375-19 0l-12.394532-12.398437c10.316406-6.769532 20.105469-14.5 29.222656-23.171875zm-2.523437 88.5625c-15.167969-.609375-29.4375-6.863281-40.183594-17.605469l-27.058593-27.0625c5.023437-1.890625 9.980468-3.976562 14.828124-6.246094 4.210938-1.964844 8.421876-4.113281 12.566407-6.40625l14.9375 14.933594c9.746093 9.742188 24.855469 10.917969 35.894531 3.539062 1.289062 5.21875 3.972656 10.007813 7.871094 13.90625l15.710937 15.707032c-10.246093 6.476562-22.265625 9.722656-34.566406 9.234375zm91.65625-22.175781-13.910156 13.90625c-5.785157 5.789062-15.207031 5.792968-21 0l-27.28125-27.28125c-2.808594-2.804688-4.351563-6.535157-4.351563-10.5 0-3.957032 1.539063-7.679688 4.332032-10.480469l13.945312-13.945313c2.894531-2.882812 6.6875-4.324218 10.480469-4.324218 3.800781 0 7.605469 1.445312 10.5 4.339843l21.929687 21.929688c.003906 0 .007813.003906.007813.007812l5.347656 5.34375c2.808594 2.804688 4.351563 6.535157 4.351563 10.503907s-1.546876 7.695312-4.351563 10.5zm0 0"/><path d="m78.632812 224.539062c5.503907 5.503907 12.824219 8.535157 20.609376 8.535157 7.808593 0 15.132812-3.03125 20.625-8.539063 11.359374-11.371094 11.359374-29.871094-.003907-41.234375l-28.304687-28.300781c7.328125-11.914062 15.996094-23.054688 25.847656-33.222656.210938-.171875.417969-.351563.617188-.550782.246093-.246093.464843-.511718.671874-.785156.292969-.296875.589844-.597656.886719-.898437 11.195313-11.191407 23.667969-20.933594 37.078125-28.996094.382813-.148437.757813-.328125 1.121094-.542969 5.335938-3.152344 10.832031-6.054687 16.355469-8.628906 7.90625-3.703125 16.140625-6.894531 24.480469-9.480469.4375-.136719.851562-.320312 1.25-.53125 32.125-9.734375 65.878906-10.941406 98.453124-3.605469l-10.871093 10.871094c-5.511719 5.507813-8.546875 12.828125-8.546875 20.609375 0 7.796875 3.039062 15.121094 8.546875 20.617188 11.367187 11.367187 29.863281 11.367187 41.226562 0l28.269531-28.265625c12.78125 7.871094 24.652344 17.25 35.34375 27.953125 12.0625 12.070312 22.449219 25.605469 30.875 40.226562 3.292969 5.726563 12.667969 25.53125 16.730469 38.019531.105469.554688.277344 1.09375.507813 1.613282.003906.011718.007812.019531.007812.027344 1.507813 4.980468 4.492188 4.449218 6.847656 4.449218h.007813c1.917969-.003906 3.832031-.734375 5.296875-2.195312l35.558594-35.546875c13.421875-13.421875 21.230468-31.242188 21.988281-50.1875.664063-16.507813-4.0625-32.589844-13.398437-45.980469l.75-.75c5.636718-5.636719 8.742187-13.132812 8.742187-21.109375 0-7.972656-3.105469-15.46875-8.742187-21.105469l-13.90625-13.90625c-11.640626-11.636718-30.574219-11.636718-42.214844 0l-.671875.671875c-13.40625-9.484375-29.539063-14.332031-46.171875-13.7187498-19.054688.6953128-36.980469 8.5078128-50.472656 21.9999998l-33.328126 33.328125c-36.902343-10.058594-75.527343-9.789062-112.28125.773438l-32.269531-32.277344c-13.421875-13.417969-31.246093-21.226562-50.191406-21.984375-16.492187-.667969-32.589844 4.0625-45.984375 13.398437l-.75-.753906c-11.640625-11.636718-30.574219-11.632812-42.214844 0l-13.902344 13.90625c-5.640624 5.636719-8.746093 13.132813-8.746093 21.105469 0 7.976563 3.105469 15.472656 8.746093 21.109375l.675782.675781c-9.488282 13.410157-14.328125 29.554688-13.7265628 46.164063.6914068 19.050781 8.5039068 36.972656 21.9960938 50.464844zm335.113282-142.257812c.101562.101562.203125.210938.308594.3125l28.074218 28.0625c2.539063 2.539062 3.9375 5.914062 3.9375 9.5 0 3.589844-1.394531 6.960938-3.9375 9.496094l-12.332031 12.332031c-6.8125-10.367187-14.574219-20.148437-23.1875-29.210937l3.855469-3.851563c2.929687-2.929687 2.929687-7.679687 0-10.605469-2.929688-2.929687-7.679688-2.929687-10.605469 0l-3.964844 3.964844c-8.753906-7.988281-18.148437-15.199219-28.078125-21.554688l12.6875-12.6875c5.238282-5.238281 13.765625-5.238281 19.003906 0zm81.378906 33.066406c-.605469 15.167969-6.859375 29.433594-17.605469 40.179688l-27.179687 27.167968c-3.851563-10.210937-9.503906-21.664062-12.570313-27.46875l14.960938-14.964843c5.375-5.367188 8.332031-12.503907 8.332031-20.101563 0-5.714844-1.671875-11.167968-4.789062-15.808594 5.097656-1.257812 9.929687-3.875 13.90625-7.851562l15.714843-15.714844c6.480469 10.246094 9.726563 22.253906 9.230469 34.5625zm-32.675781-95.988281c3.804687 0 7.605469 1.449219 10.5 4.34375l13.910156 13.90625c2.804687 2.804687 4.347656 6.53125 4.347656 10.5s-1.542969 7.699219-4.347656 10.503906l-5.457031 5.457031c-.015625.015626-.035156.03125-.046875.046876l-21.78125 21.777343c-5.789063 5.789063-15.210938 5.789063-21 0l-13.90625-13.90625c-5.792969-5.792969-5.792969-15.214843-.003907-21.003906l27.285157-27.28125c2.894531-2.898437 6.695312-4.34375 10.5-4.34375zm-107.816407 13.292969c20.167969-20.167969 51.804688-23.109375 75.226563-8.070313l-15.800781 15.796875c-3.953125 3.953125-6.5625 8.75-7.828125 13.816406-11.078125-7.703124-26.460938-6.632812-36.332031 3.238282l-51.820313 51.816406c-5.519531 5.519531-14.5 5.519531-20.027344-.003906-2.675781-2.667969-4.144531-6.222656-4.144531-10.007813 0-3.773437 1.472656-7.328125 4.152344-10.007812zm-286.589843 98.832031c-2.539063-2.535156-3.933594-5.90625-3.933594-9.496094 0-3.585937 1.394531-6.957031 3.933594-9.496093l42.632812-42.625c5.238281-5.238282 13.757813-5.238282 18.996094 0l12.25 12.246093c-10.363281 6.816407-20.148437 14.582031-29.207031 23.199219l-3.785156-3.785156c-2.929688-2.925782-7.675782-2.925782-10.605469 0-2.925781 2.929687-2.925781 7.679687 0 10.609375l3.898437 3.894531c-7.988281 8.761719-15.1875 18.175781-21.53125 28.101562zm47.3125-114.609375c15.167969.605469 29.441406 6.859375 40.1875 17.605469l26.945312 26.949219c-9.421875 3.554687-18.578125 7.796874-27.367187 12.671874l-14.84375-14.84375c-9.742188-9.742187-24.859375-10.917968-35.898438-3.53125-1.289062-5.222656-3.972656-10.011718-7.875-13.910156l-15.714844-15.710937c10.25-6.480469 22.265626-9.726563 34.566407-9.230469zm-91.648438 22.171875 13.90625-13.90625c2.894531-2.894531 6.695313-4.339844 10.5-4.339844 3.804688 0 7.605469 1.445313 10.503907 4.339844l5.433593 5.4375c.027344.023437.054688.054687.082031.078125l21.769532 21.765625c2.804687 2.808594 4.347656 6.535156 4.347656 10.503906s-1.542969 7.695313-4.347656 10.5l-13.910156 13.90625c-5.789063 5.789063-15.210938 5.792969-21.003907 0l-27.28125-27.28125c-2.808593-2.804687-4.351562-6.535156-4.351562-10.503906 0-3.964844 1.542969-7.695313 4.351562-10.5zm.882813 43.097656 15.792968 15.792969c3.953126 3.953125 8.75 6.558594 13.8125 7.828125-3.300781 4.726563-5.085937 10.335937-5.085937 16.222656 0 7.59375 2.960937 14.734375 8.328125 20.101563l51.820312 51.816406c5.519532 5.519531 5.519532 14.503906-.003906 20.03125-2.664062 2.667969-6.21875 4.136719-10.011718 4.136719-3.777344 0-7.332032-1.46875-10.003907-4.140625l-56.585937-56.582032c-20.167969-20.164062-23.105469-51.792968-8.0625-75.207031zm0 0"/><path d="m154.957031 282.402344-36.808593 32.625c-5.808594 5.148437-6.347657 14.0625-1.199219 19.871094l20.28125 22.878906c.023437.023437.042969.050781.0625.078125.019531.019531.035156.035156.054687.050781l19.453125 21.945312c2.773438 3.132813 6.648438 4.730469 10.539063 4.730469 3.320312 0 6.652344-1.164062 9.328125-3.535156l36.808593-32.628906c5.8125-5.144531 6.347657-14.0625 1.199219-19.871094l-39.847656-44.949219c-5.148437-5.808594-14.0625-6.34375-19.871094-1.195312zm9.257813 11.835937 14.460937 16.308594-35.203125 31.664063-14.6875-16.570313zm3.195312 74.972657-13.984375-15.777344 35.199219-31.660156 14.214844 16.03125zm0 0"/><path d="m338.1875 133.53125-52.800781 46.796875c-3.042969 2.699219-4.851563 6.421875-5.097657 10.480469-.242187 4.058594 1.105469 7.96875 3.804688 11.011718l38.328125 43.234376c2.695313 3.042968 6.417969 4.851562 10.476563 5.097656.3125.019531.625.027344.933593.027344 3.722657 0 7.273438-1.34375 10.078125-3.832032l52.800782-46.800781c3.042968-2.695313 4.851562-6.417969 5.097656-10.476563.246094-4.0625-1.105469-7.972656-3.804688-11.015624l-38.324218-43.230469c-5.570313-6.28125-15.210938-6.859375-21.492188-1.292969zm48.648438 54.636719c-.003907.09375-.046876.132812-.074219.152343v.003907l-52.800781 46.796875c-.027344.023437-.058594.070312-.160157.058594-.09375-.003907-.132812-.050782-.15625-.074219l-38.324219-43.234375c-.023437-.023438-.0625-.070313-.058593-.160156.007812-.09375.050781-.132813.074219-.15625l52.800781-46.796876c.042969-.039062.097656-.058593.148437-.058593.066406 0 .125.023437.167969.074219l38.328125 43.234374c.023438.023438.0625.070313.054688.160157zm0 0"/></svg>