<?xml version="1.0" encoding="iso-8859-1"?>
<!-- Generator: Adobe Illustrator 16.0.0, SVG Export Plug-In . SVG Version: 6.00 Build 0)  -->
<!DOCTYPE svg PUBLIC "-//W3C//DTD SVG 1.1//EN" "http://www.w3.org/Graphics/SVG/1.1/DTD/svg11.dtd">
<svg version="1.1" id="Capa_1" xmlns="http://www.w3.org/2000/svg" xmlns:xlink="http://www.w3.org/1999/xlink" x="0px" y="0px"
	 width="31.488px" height="31.488px" viewBox="0 0 31.488 31.488" style="enable-background:new 0 0 31.488 31.488;"
	 xml:space="preserve">
<g>
	<g>
		<path d="M26.095,25.396c1.331-0.561,2.269-1.875,2.269-3.408c0-2.043-1.655-3.695-3.696-3.695c-2.04,0-3.694,1.652-3.694,3.695
			c0,1.533,0.936,2.849,2.268,3.408c-1.209,0.304-2.268,0.979-3.049,1.896c-0.779-0.918-1.84-1.593-3.047-1.896
			c1.33-0.561,2.268-1.875,2.268-3.408c0-2.043-1.655-3.695-3.695-3.695c-2.042,0-3.696,1.652-3.696,3.695
			c0,1.533,0.936,2.849,2.268,3.408c-1.209,0.304-2.269,0.979-3.049,1.896c-0.78-0.918-1.84-1.593-3.049-1.896
			c1.333-0.561,2.268-1.875,2.268-3.408c0-2.043-1.654-3.695-3.696-3.695c-2.04,0-3.695,1.652-3.695,3.695
			c0,1.533,0.936,2.849,2.268,3.408C3.4,25.883,1.842,27.32,1.212,29.198h8.951h2.153h6.799h2.152h8.95
			C29.589,27.32,28.031,25.884,26.095,25.396z"/>
		<path d="M0,2.291V26.66h1.511c0.502-0.598,1.099-1.109,1.777-1.506c-0.774-0.848-1.226-1.969-1.226-3.166
			c0-1.059,0.364-2.024,0.956-2.812V5.31h25.453v13.939c0.559,0.772,0.897,1.714,0.897,2.739c0,1.197-0.451,2.318-1.226,3.166
			c0.68,0.396,1.276,0.908,1.777,1.506h1.568V2.291H0z"/>
	</g>
</g>
<g>
</g>
<g>
</g>
<g>
</g>
<g>
</g>
<g>
</g>
<g>
</g>
<g>
</g>
<g>
</g>
<g>
</g>
<g>
</g>
<g>
</g>
<g>
</g>
<g>
</g>
<g>
</g>
<g>
</g>
</svg>
